<svg xmlns="http://www.w3.org/2000/svg" viewBox="-8 -8 799 220">
  <path d="M0,14 L77,14 A49,49 0 0 1 77,112 L56,112" fill="none" stroke="currentColor" stroke-width="28" stroke-linecap="butt" stroke-linejoin="miter"></path>
    <rect x="0" y="56" width="28" height="84" fill="currentColor"></rect>
    <rect x="0" y="168" width="28" height="28" fill="#0FAE65"></rect>
  <g transform="translate(185.20,148.00) scale(0.7385)"><path d="M122.56-102.20Q122.56-90.33 116.94-79.94Q111.32-69.55 99.34-63.19Q87.36-56.83 69.12-56.83L69.12-56.83L44.32-56.83L44.32 0L14.63 0L14.63-148L69.12-148Q86.30-148 98.38-142.06Q110.47-136.13 116.51-125.74Q122.56-115.35 122.56-102.20L122.56-102.20ZM67.85-80.79Q80.15-80.79 86.09-86.40Q92.02-92.02 92.02-102.20L92.02-102.20Q92.02-123.83 67.85-123.83L67.85-123.83L44.32-123.83L44.32-80.79L67.85-80.79ZM135.52-55.80Q135.52-72.60 142.22-85.60Q148.92-98.60 160.42-105.60Q171.92-112.60 186.12-112.60L186.12-112.60Q198.52-112.60 207.82-107.60Q217.12-102.60 222.72-95L222.72-95L222.72-110.80L250.92-110.80L250.92 0L222.72 0L222.72-16.20Q217.32-8.40 207.82-3.30Q198.32 1.80 185.92 1.80L185.92 1.80Q171.92 1.80 160.42-5.40Q148.92-12.60 142.22-25.70Q135.52-38.80 135.52-55.80L135.52-55.80ZM222.72-55.40Q222.72-65.60 218.72-72.90Q214.72-80.20 207.92-84.10Q201.12-88 193.32-88L193.32-88Q185.52-88 178.92-84.20Q172.32-80.40 168.22-73.10Q164.12-65.80 164.12-55.80L164.12-55.80Q164.12-45.80 168.22-38.30Q172.32-30.80 179.02-26.80Q185.72-22.80 193.32-22.80L193.32-22.80Q201.12-22.80 207.92-26.70Q214.72-30.60 218.72-37.90Q222.72-45.20 222.72-55.40L222.72-55.40ZM278.32-148L306.32-148L306.32 0L278.32 0L278.32-148ZM333.92-148L361.92-148L361.92 0L333.92 0L333.92-148ZM431.92 1.80Q418.32 1.80 407.52-3.10Q396.72-8 390.42-16.40Q384.12-24.80 383.52-35L383.52-35L411.72-35Q412.52-28.60 418.02-24.40Q423.52-20.20 431.72-20.20L431.72-20.20Q439.72-20.20 444.22-23.40Q448.72-26.60 448.72-31.60L448.72-31.60Q448.72-37 443.22-39.70Q437.72-42.40 425.72-45.60L425.72-45.60Q413.32-48.60 405.42-51.80Q397.52-55 391.82-61.60Q386.12-68.20 386.12-79.40L386.12-79.40Q386.12-88.60 391.42-96.20Q396.72-103.80 406.62-108.20Q416.52-112.60 429.92-112.60L429.92-112.60Q449.72-112.60 461.52-102.70Q473.32-92.80 474.52-76L474.52-76L447.72-76Q447.12-82.60 442.22-86.50Q437.32-90.40 429.12-90.40L429.12-90.40Q421.52-90.40 417.42-87.60Q413.32-84.80 413.32-79.80L413.32-79.80Q413.32-74.20 418.92-71.30Q424.52-68.40 436.32-65.40L436.32-65.40Q448.32-62.40 456.12-59.20Q463.92-56 469.62-49.30Q475.32-42.60 475.52-31.60L475.52-31.60Q475.52-22 470.22-14.40Q464.92-6.80 455.02-2.50Q445.12 1.80 431.92 1.80L431.92 1.80ZM555.92-87.80L531.12-87.80L531.12-34.20Q531.12-28.60 533.82-26.10Q536.52-23.60 542.92-23.60L542.92-23.60L555.92-23.60L555.92 0L538.32 0Q502.92 0 502.92-34.40L502.92-34.40L502.92-87.80L489.72-87.80L489.72-110.80L502.92-110.80L502.92-138.20L531.12-138.20L531.12-110.80L555.92-110.80L555.92-87.80ZM625.32 1.80Q609.32 1.80 596.52-5.30Q583.72-12.40 576.42-25.40Q569.12-38.40 569.12-55.40L569.12-55.40Q569.12-72.40 576.62-85.40Q584.12-98.40 597.12-105.50Q610.12-112.60 626.12-112.60L626.12-112.60Q642.12-112.60 655.12-105.50Q668.12-98.40 675.62-85.40Q683.12-72.40 683.12-55.40L683.12-55.40Q683.12-38.40 675.42-25.40Q667.72-12.40 654.62-5.30Q641.52 1.80 625.32 1.80L625.32 1.80ZM625.32-22.60Q632.92-22.60 639.62-26.30Q646.32-30 650.32-37.40Q654.32-44.80 654.32-55.40L654.32-55.40Q654.32-71.20 646.02-79.70Q637.72-88.20 625.72-88.20L625.72-88.20Q613.72-88.20 605.62-79.70Q597.52-71.20 597.52-55.40L597.52-55.40Q597.52-39.60 605.42-31.10Q613.32-22.60 625.32-22.60L625.32-22.60ZM765.12-112.40Q784.92-112.40 797.12-99.90Q809.32-87.40 809.32-65L809.32-65L809.32 0L781.32 0L781.32-61.20Q781.32-74.40 774.72-81.50Q768.12-88.60 756.72-88.60L756.72-88.60Q745.12-88.60 738.42-81.50Q731.72-74.40 731.72-61.20L731.72-61.20L731.72 0L703.72 0L703.72-110.80L731.72-110.80L731.72-97Q737.32-104.20 746.02-108.30Q754.72-112.40 765.12-112.40L765.12-112.40Z" fill="currentColor"></path></g>
</svg>